<svg width="22" height="22" viewBox="0 0 22 22" fill="none" xmlns="http://www.w3.org/2000/svg">
    <g clip-path="url(#clip0_37651_24014)">
        <path d="M11 22C17.0751 22 22 17.0751 22 11C22 4.92487 17.0751 0 11 0C4.92487 0 0 4.92487 0 11C0 17.0751 4.92487 22 11 22Z" fill="#28A197"/>
        <path fill-rule="evenodd" clip-rule="evenodd" d="M3.29297 18.8487C4.23255 15.4753 7.32741 13 11.0004 13C14.6731 13 17.7678 15.4749 18.7076 18.848C17.8058 19.7338 16.752 20.4654 15.5889 21H11.0004H6.41097C5.24819 20.4655 4.19463 19.7342 3.29297 18.8487Z" fill="white"/>
        <path d="M11 11.5C13.0711 11.5 14.75 9.82107 14.75 7.75C14.75 5.67893 13.0711 4 11 4C8.92893 4 7.25 5.67893 7.25 7.75C7.25 9.82107 8.92893 11.5 11 11.5Z" fill="white"/>
        <path d="M11 21C16.5228 21 21 16.5228 21 11C21 5.47715 16.5228 1 11 1C5.47715 1 1 5.47715 1 11C1 16.5228 5.47715 21 11 21Z" stroke="#28A197" stroke-width="2"/>
    </g>
    <defs>
        <clipPath id="clip0_37651_24014">
            <rect width="22" height="22" fill="white"/>
        </clipPath>
    </defs>
</svg>
